# xmcd
#
# Track frame offsets:
#	150
#	16753
#	49817
#	67824
#	86879
#	104412
#	120068
#	141464
#	165967
#	187356
#	204408
#	235776
#	271459
#	291716
#	322906
#
# Disc length: 4593 seconds
#
# Revision: 0
# Processed by: cddbd v1.5.2PL0 Copyright (c) Steve Scherf et al.
# Submitted via: EasyCDDAExtractor 10.0.2.1
#
DISCID=d611ef0f
DTITLE=Various Artist - Calling All Steppers Vol 8
DYEAR=2007
DGENRE=R&B
TTITLE0=Trey - Chicago
TTITLE1=Janet Jackson - Enjoy (Ext)
TTITLE2=Ty Causey -  Life On Track
TTITLE3=Robin Thicke -  Lost Without You
TTITLE4=05 Dozen Roses -  Dozen Roses
TTITLE5=06 My Block -  My Block
TTITLE6=07 Bubbs Lounge -  Bubbs Lounge
TTITLE7=Paul Brown - Winelight
TTITLE8=09 - Unknown
TTITLE9=10 When Will My Love Be Right -  When Will My Love Be Right
TTITLE10=11 Track 11 -  Track 11
TTITLE11=The Trammps -  Season For Girls
TTITLE12=13 I Can - I Can't Believe
TTITLE13=14 Joy Ride -  Joy Ride
TTITLE14=15 Na Na -  Na Na
EXTD=
EXTT0=
EXTT1=
EXTT2=
EXTT3=
EXTT4=
EXTT5=
EXTT6=
EXTT7=
EXTT8=
EXTT9=
EXTT10=
EXTT11=
EXTT12=
EXTT13=
EXTT14=
PLAYORDER=
